<svg width="42" height="42" viewBox="0 0 48 48" fill="none" xmlns="http://www.w3.org/2000/svg">
<path d="M40.5 40.5H7.5" stroke="current" stroke-width="3" stroke-linecap="round" stroke-linejoin="round"/>
<path d="M27 15V33C27 33.8284 27.6716 34.5 28.5 34.5H36C36.8284 34.5 37.5 33.8284 37.5 33V15C37.5 14.1716 36.8284 13.5 36 13.5H28.5C27.6716 13.5 27 14.1716 27 15Z" stroke="current" stroke-width="3" stroke-linecap="round" stroke-linejoin="round"/>
<path d="M19.5 6H12C11.1716 6 10.5 6.67157 10.5 7.5V33C10.5 33.8284 11.1716 34.5 12 34.5H19.5C20.3284 34.5 21 33.8284 21 33V7.5C21 6.67157 20.3284 6 19.5 6Z" stroke="current" stroke-width="3" stroke-linecap="round" stroke-linejoin="round"/>
</svg>
