<svg width="42" height="42" viewBox="0 0 42 42" fill="none" xmlns="http://www.w3.org/2000/svg">
<path d="M24.9375 34.125V26.25C24.9375 25.9019 24.7992 25.5681 24.5531 25.3219C24.3069 25.0758 23.9731 24.9375 23.625 24.9375H18.375C18.0269 24.9375 17.6931 25.0758 17.4469 25.3219C17.2008 25.5681 17.0625 25.9019 17.0625 26.25V34.125C17.0625 34.4731 16.9242 34.807 16.6781 35.0531C16.4319 35.2992 16.0981 35.4375 15.75 35.4375H7.875C7.5269 35.4375 7.19306 35.2992 6.94692 35.0531C6.70078 34.807 6.5625 34.4731 6.5625 34.125V18.9492C6.56544 18.7676 6.60469 18.5884 6.67795 18.4221C6.75121 18.2559 6.85699 18.106 6.98906 17.9813L20.1141 6.05392C20.356 5.83257 20.6721 5.70981 21 5.70981C21.3279 5.70981 21.644 5.83257 21.8859 6.05392L35.0109 17.9813C35.143 18.106 35.2488 18.2559 35.322 18.4221C35.3953 18.5884 35.4346 18.7676 35.4375 18.9492V34.125C35.4375 34.4731 35.2992 34.807 35.0531 35.0531C34.8069 35.2992 34.4731 35.4375 34.125 35.4375H26.25C25.9019 35.4375 25.5681 35.2992 25.3219 35.0531C25.0758 34.807 24.9375 34.4731 24.9375 34.125Z" stroke="current" stroke-width="2.625" stroke-linecap="round" stroke-linejoin="round"/>
</svg>
