<svg width="262" height="38" viewBox="0 0 262 38" fill="none" xmlns="http://www.w3.org/2000/svg">
<path d="M45.9835 6.22421H51.0884V18.2797H64.322V6.22421H69.4661V34.6547H64.322V22.5599H51.0884V34.6547H45.9835V6.22421ZM83.9563 35.0866C81.8357 35.0866 79.9967 34.6416 78.439 33.7515C76.8814 32.8483 75.6837 31.5721 74.8459 29.9228C74.0082 28.2735 73.5893 26.3428 73.5893 24.1307C73.5893 21.9447 74.0082 20.0206 74.8459 18.3582C75.6837 16.6827 76.8617 15.3803 78.3801 14.451C79.9116 13.5216 81.6787 13.0569 83.6814 13.0569C85.4877 13.0569 87.1239 13.4496 88.5899 14.235C90.0691 15.0073 91.2406 16.1984 92.1045 17.8084C92.9815 19.4185 93.42 21.4212 93.42 23.8165V25.3873H78.5372C78.5634 26.5784 78.799 27.6125 79.244 28.4895C79.7022 29.3534 80.3305 30.0144 81.1289 30.4726C81.9405 30.9307 82.8829 31.1598 83.9563 31.1598C85.0296 31.1598 85.9393 30.9634 86.6854 30.5707C87.4315 30.165 87.9747 29.6283 88.3151 28.9607H93.2236C92.9226 30.1911 92.3532 31.271 91.5155 32.2004C90.6777 33.1166 89.6109 33.83 88.3151 34.3405C87.0323 34.8379 85.5794 35.0866 83.9563 35.0866ZM88.6292 21.9709C88.6292 21.0154 88.4198 20.158 88.0009 19.3988C87.5951 18.6265 87.0192 18.0244 86.2731 17.5925C85.5401 17.1605 84.7024 16.9445 83.7599 16.9445C82.7913 16.9445 81.9208 17.1736 81.1485 17.6317C80.3763 18.0768 79.7676 18.6854 79.3226 19.4577C78.8775 20.23 78.6223 21.0677 78.5568 21.9709H88.6292ZM96.3259 28.6466C96.3259 26.4606 97.0654 24.8768 98.5445 23.8951C100.037 22.9134 101.941 22.3505 104.258 22.2065C105.449 22.1149 107.275 22.0167 109.736 21.912L109.716 20.2038C109.716 19.1436 109.383 18.3255 108.715 17.7495C108.061 17.1605 107.112 16.866 105.868 16.866C104.782 16.866 103.892 17.0951 103.198 17.5532C102.504 18.0113 102.059 18.6331 101.863 19.4185H97.0327C97.1505 18.2011 97.5824 17.1147 98.3286 16.1592C99.0747 15.1905 100.102 14.4313 101.411 13.8816C102.72 13.3318 104.245 13.0569 105.986 13.0569C107.478 13.0569 108.879 13.2926 110.188 13.7638C111.51 14.2219 112.59 15.0007 113.427 16.1003C114.278 17.1867 114.704 18.62 114.704 20.4002V34.6547H109.913V31.7095H109.756C109.232 32.7043 108.447 33.5159 107.4 34.1442C106.352 34.7725 105.043 35.0866 103.473 35.0866C102.098 35.0866 100.868 34.8379 99.7815 34.3405C98.7081 33.8431 97.8639 33.1166 97.2487 32.1611C96.6335 31.1925 96.3259 30.021 96.3259 28.6466ZM101.156 28.6073C101.156 29.4974 101.483 30.1846 102.138 30.6689C102.805 31.1532 103.682 31.3954 104.769 31.3954C105.75 31.3954 106.621 31.199 107.38 30.8063C108.139 30.4137 108.722 29.8835 109.127 29.216C109.546 28.5353 109.756 27.7958 109.756 26.9973L109.736 25.2498C109.082 25.276 108.303 25.3218 107.4 25.3873C106.51 25.4396 105.724 25.492 105.043 25.5444C103.826 25.6491 102.871 25.9567 102.177 26.4672C101.496 26.9777 101.156 27.691 101.156 28.6073ZM124.442 34.6547H119.416V6.22421H124.442V34.6547ZM139.875 17.1801H135.673V28.2539C135.673 29.2487 135.889 29.9097 136.321 30.2369C136.766 30.5642 137.394 30.7278 138.206 30.7278C138.769 30.7278 139.417 30.7016 140.15 30.6493V34.7332C139.338 34.8641 138.376 34.9295 137.263 34.9295C135.981 34.9295 134.842 34.7136 133.847 34.2816C132.852 33.8497 132.073 33.1952 131.511 32.3182C130.948 31.4412 130.673 30.3613 130.686 29.0785V17.1801H127.623V13.3318H130.686V8.22691H135.673V13.3318H139.875V17.1801ZM149.221 34.6547H144.194V6.22421H149.103V16.9445H149.378C149.875 15.701 150.654 14.7455 151.714 14.0779C152.774 13.3973 154.103 13.0569 155.7 13.0569C157.179 13.0569 158.468 13.3711 159.568 13.9994C160.681 14.6146 161.538 15.5243 162.14 16.7286C162.742 17.9328 163.043 19.3792 163.043 21.0677V34.6547H158.056V21.8531C158.043 20.4002 157.67 19.2745 156.937 18.476C156.204 17.6775 155.176 17.2849 153.854 17.2979C152.951 17.2849 152.146 17.4747 151.439 17.8673C150.746 18.2469 150.202 18.8098 149.81 19.5559C149.417 20.2889 149.221 21.1594 149.221 22.1673V34.6547ZM180.714 24.8768H167.912V20.7536H180.714V24.8768ZM185.623 13.3318H190.413V16.9445H190.688C191.133 15.7272 191.866 14.7782 192.887 14.0976C193.908 13.4038 195.126 13.0569 196.539 13.0569C197.966 13.0569 199.183 13.4038 200.191 14.0976C201.199 14.7782 201.906 15.7272 202.312 16.9445H202.547C203.019 15.7534 203.817 14.8109 204.943 14.1172C206.082 13.4104 207.417 13.0569 208.948 13.0569C210.27 13.0569 211.429 13.3384 212.423 13.9012C213.431 14.451 214.21 15.2756 214.76 16.3751C215.31 17.4616 215.585 18.7771 215.585 20.3216V34.6547H210.597V21.107C210.597 19.8373 210.257 18.8818 209.576 18.2404C208.909 17.5859 208.032 17.2587 206.945 17.2587C205.741 17.2587 204.792 17.6317 204.098 18.3778C203.405 19.1239 203.058 20.1122 203.058 21.3426V34.6547H198.189V20.9107C198.175 19.8111 197.835 18.9276 197.168 18.26C196.513 17.5925 195.649 17.2587 194.576 17.2587C193.856 17.2587 193.195 17.4485 192.593 17.8281C192.004 18.1946 191.533 18.7182 191.179 19.3988C190.826 20.0664 190.649 20.8321 190.649 21.696V34.6547H185.623V13.3318ZM229.839 35.0866C227.719 35.0866 225.879 34.6416 224.322 33.7515C222.764 32.8483 221.566 31.5721 220.729 29.9228C219.891 28.2735 219.472 26.3428 219.472 24.1307C219.472 21.9447 219.891 20.0206 220.729 18.3582C221.566 16.6827 222.745 15.3803 224.263 14.451C225.794 13.5216 227.561 13.0569 229.564 13.0569C231.371 13.0569 233.007 13.4496 234.473 14.235C235.952 15.0073 237.123 16.1984 237.987 17.8084C238.864 19.4185 239.303 21.4212 239.303 23.8165V25.3873H224.42C224.446 26.5784 224.682 27.6125 225.127 28.4895C225.585 29.3534 226.213 30.0144 227.012 30.4726C227.823 30.9307 228.766 31.1598 229.839 31.1598C230.912 31.1598 231.822 30.9634 232.568 30.5707C233.314 30.165 233.858 29.6283 234.198 28.9607H239.106C238.805 30.1911 238.236 31.271 237.398 32.2004C236.561 33.1166 235.494 33.83 234.198 34.3405C232.915 34.8379 231.462 35.0866 229.839 35.0866ZM234.512 21.9709C234.512 21.0154 234.303 20.158 233.884 19.3988C233.478 18.6265 232.902 18.0244 232.156 17.5925C231.423 17.1605 230.585 16.9445 229.643 16.9445C228.674 16.9445 227.804 17.1736 227.031 17.6317C226.259 18.0768 225.65 18.6854 225.205 19.4577C224.76 20.23 224.505 21.0677 224.44 21.9709H234.512ZM248.845 26.2905H244.408L243.936 6.22421H249.277L248.845 26.2905ZM243.583 31.9059C243.583 31.3692 243.72 30.8718 243.995 30.4137C244.27 29.9424 244.643 29.5694 245.115 29.2945C245.586 29.0196 246.096 28.8822 246.646 28.8822C247.183 28.8822 247.68 29.0196 248.138 29.2945C248.609 29.5694 248.982 29.9424 249.257 30.4137C249.532 30.8718 249.67 31.3692 249.67 31.9059C249.67 32.4556 249.532 32.9661 249.257 33.4373C248.982 33.9086 248.609 34.2816 248.138 34.5565C247.68 34.8314 247.183 34.9688 246.646 34.9688C246.096 34.9688 245.586 34.8314 245.115 34.5565C244.643 34.2816 244.27 33.9086 243.995 33.4373C243.72 32.9661 243.583 32.4556 243.583 31.9059Z" fill="#08CAC4"/>
<path d="M22.3831 11.7806C24.335 11.7806 25.9173 10.1983 25.9173 8.24641C25.9173 6.29454 24.335 4.71223 22.3831 4.71223C20.4312 4.71223 18.8489 6.29454 18.8489 8.24641C18.8489 10.1983 20.4312 11.7806 22.3831 11.7806Z" stroke="#08CAC4" stroke-width="3.20276" stroke-linecap="round" stroke-linejoin="round"/>
<path d="M8.2464 14.9541C8.2464 14.9541 12.9586 10.6025 20.027 16.1322C27.4588 21.9462 31.8075 19.6663 31.8075 19.6663" stroke="#08CAC4" stroke-width="3.20276" stroke-linecap="round" stroke-linejoin="round"/>
<path d="M19.8908 16.0267C19.2514 19.0315 14.9552 30.4757 4.71222 29.4514" stroke="#08CAC4" stroke-width="3.20276" stroke-linecap="round" stroke-linejoin="round"/>
<path d="M16.2932 23.732C18.9179 24.2928 25.9172 26.5063 25.9172 34.1636" stroke="#08CAC4" stroke-width="3.20276" stroke-linecap="round" stroke-linejoin="round"/>
</svg>
