<svg width="36" height="36" viewBox="0 0 36 36" fill="none" xmlns="http://www.w3.org/2000/svg">
<path d="M18 19.125C20.4853 19.125 22.5 17.1103 22.5 14.625C22.5 12.1397 20.4853 10.125 18 10.125C15.5147 10.125 13.5 12.1397 13.5 14.625C13.5 17.1103 15.5147 19.125 18 19.125Z" stroke="#A6ABBD" stroke-width="2.25" stroke-linecap="round" stroke-linejoin="round"/>
<path d="M29.25 14.625C29.25 24.75 18 32.625 18 32.625C18 32.625 6.75 24.75 6.75 14.625C6.75 11.6413 7.93526 8.77983 10.045 6.67005C12.1548 4.56026 15.0163 3.375 18 3.375C20.9837 3.375 23.8452 4.56026 25.955 6.67005C28.0647 8.77983 29.25 11.6413 29.25 14.625V14.625Z" stroke="#A6ABBD" stroke-width="2.25" stroke-linecap="round" stroke-linejoin="round"/>
</svg>
